<mxfile host="app.diagrams.net" agent="Mozilla/5.0 (Windows NT 10.0; Win64; x64) AppleWebKit/537.36 (KHTML, like Gecko) Chrome/136.0.0.0 Safari/537.36" version="27.1.1">
  <diagram name="第 1 页" id="O4yhXPCtqkdh3GfNbBSK">
    <mxGraphModel dx="906" dy="489" grid="0" gridSize="10" guides="1" tooltips="1" connect="1" arrows="1" fold="1" page="0" pageScale="1" pageWidth="827" pageHeight="1169" math="0" shadow="0">
      <root>
        <mxCell id="0" />
        <mxCell id="1" parent="0" />
        <mxCell id="DJyluFNJcO-9lOKe7j0D-1" value="MasterChainController" style="ellipse;shape=cloud;whiteSpace=wrap;html=1;fillColor=#f8cecc;strokeColor=#b85450;" parent="1" vertex="1">
          <mxGeometry x="426" y="315" width="205" height="80" as="geometry" />
        </mxCell>
        <mxCell id="DJyluFNJcO-9lOKe7j0D-3" value="TurtleSpawner" style="ellipse;shape=cloud;whiteSpace=wrap;html=1;fillColor=#f8cecc;strokeColor=#b85450;" parent="1" vertex="1">
          <mxGeometry x="423" y="73" width="205" height="80" as="geometry" />
        </mxCell>
        <mxCell id="DJyluFNJcO-9lOKe7j0D-5" value="MasterPub" style="rounded=1;whiteSpace=wrap;html=1;fillColor=#fff2cc;strokeColor=#d6b656;" parent="1" vertex="1">
          <mxGeometry x="68" y="332" width="120" height="60" as="geometry" />
        </mxCell>
        <mxCell id="DJyluFNJcO-9lOKe7j0D-6" value="NewTurtlesSub" style="rounded=1;whiteSpace=wrap;html=1;fillColor=#fff2cc;strokeColor=#d6b656;" parent="1" vertex="1">
          <mxGeometry x="696" y="498" width="120" height="60" as="geometry" />
        </mxCell>
        <mxCell id="DJyluFNJcO-9lOKe7j0D-7" value="TurtlePub" style="rounded=1;whiteSpace=wrap;html=1;fillColor=#fff2cc;strokeColor=#d6b656;" parent="1" vertex="1">
          <mxGeometry x="319" y="494" width="120" height="60" as="geometry" />
        </mxCell>
        <mxCell id="DJyluFNJcO-9lOKe7j0D-8" value="&lt;span style=&quot;text-align: left;&quot;&gt;ControlCycleTimer&lt;/span&gt;" style="rounded=1;whiteSpace=wrap;html=1;fillColor=#fff2cc;strokeColor=#d6b656;" parent="1" vertex="1">
          <mxGeometry x="806" y="325" width="161" height="60" as="geometry" />
        </mxCell>
        <mxCell id="DJyluFNJcO-9lOKe7j0D-9" value="&lt;span style=&quot;text-align: left;&quot;&gt;SpawnClient&lt;/span&gt;" style="ellipse;shape=cloud;whiteSpace=wrap;html=1;fillColor=#dae8fc;strokeColor=#6c8ebf;" parent="1" vertex="1">
          <mxGeometry x="118" y="185" width="127" height="80" as="geometry" />
        </mxCell>
        <mxCell id="DJyluFNJcO-9lOKe7j0D-10" value="MeshPublisher" style="ellipse;shape=cloud;whiteSpace=wrap;html=1;fillColor=#dae8fc;strokeColor=#6c8ebf;" parent="1" vertex="1">
          <mxGeometry x="766" y="194" width="120" height="80" as="geometry" />
        </mxCell>
        <mxCell id="DJyluFNJcO-9lOKe7j0D-17" value="" style="endArrow=classic;html=1;rounded=0;" parent="1" source="DJyluFNJcO-9lOKe7j0D-3" target="DJyluFNJcO-9lOKe7j0D-9" edge="1">
          <mxGeometry width="50" height="50" relative="1" as="geometry">
            <mxPoint x="674" y="174" as="sourcePoint" />
            <mxPoint x="554" y="249" as="targetPoint" />
          </mxGeometry>
        </mxCell>
        <mxCell id="DJyluFNJcO-9lOKe7j0D-18" value="" style="endArrow=classic;html=1;rounded=0;entryX=0.177;entryY=0.245;entryDx=0;entryDy=0;entryPerimeter=0;exitX=0.912;exitY=0.79;exitDx=0;exitDy=0;exitPerimeter=0;" parent="1" source="DJyluFNJcO-9lOKe7j0D-3" target="DJyluFNJcO-9lOKe7j0D-10" edge="1">
          <mxGeometry width="50" height="50" relative="1" as="geometry">
            <mxPoint x="701" y="150" as="sourcePoint" />
            <mxPoint x="581" y="225" as="targetPoint" />
          </mxGeometry>
        </mxCell>
        <mxCell id="DJyluFNJcO-9lOKe7j0D-21" value="" style="endArrow=classic;html=1;rounded=0;exitX=0.16;exitY=0.55;exitDx=0;exitDy=0;exitPerimeter=0;entryX=1;entryY=0.5;entryDx=0;entryDy=0;" parent="1" source="DJyluFNJcO-9lOKe7j0D-1" target="DJyluFNJcO-9lOKe7j0D-5" edge="1">
          <mxGeometry width="50" height="50" relative="1" as="geometry">
            <mxPoint x="273" y="470" as="sourcePoint" />
            <mxPoint x="153" y="545" as="targetPoint" />
          </mxGeometry>
        </mxCell>
        <mxCell id="DJyluFNJcO-9lOKe7j0D-26" value="" style="endArrow=classic;html=1;rounded=0;entryX=0;entryY=0;entryDx=0;entryDy=0;exitX=0.8;exitY=0.8;exitDx=0;exitDy=0;exitPerimeter=0;" parent="1" source="DJyluFNJcO-9lOKe7j0D-1" target="DJyluFNJcO-9lOKe7j0D-6" edge="1">
          <mxGeometry width="50" height="50" relative="1" as="geometry">
            <mxPoint x="459" y="453" as="sourcePoint" />
            <mxPoint x="492" y="535" as="targetPoint" />
          </mxGeometry>
        </mxCell>
        <mxCell id="DJyluFNJcO-9lOKe7j0D-27" value="" style="endArrow=classic;html=1;rounded=0;exitX=0.875;exitY=0.5;exitDx=0;exitDy=0;exitPerimeter=0;entryX=0;entryY=0.5;entryDx=0;entryDy=0;" parent="1" source="DJyluFNJcO-9lOKe7j0D-1" target="DJyluFNJcO-9lOKe7j0D-8" edge="1">
          <mxGeometry width="50" height="50" relative="1" as="geometry">
            <mxPoint x="879" y="478" as="sourcePoint" />
            <mxPoint x="562" y="545" as="targetPoint" />
          </mxGeometry>
        </mxCell>
        <mxCell id="vYYCF9nVjxDNfxIwMQB5-3" value="Spawn request" style="text;html=1;align=center;verticalAlign=middle;whiteSpace=wrap;rounded=0;" vertex="1" parent="1">
          <mxGeometry x="292" y="138" width="60" height="30" as="geometry" />
        </mxCell>
        <mxCell id="vYYCF9nVjxDNfxIwMQB5-4" value="The name of the new turtle has &#xa;been announced on the forum." style="text;whiteSpace=wrap;" vertex="1" parent="1">
          <mxGeometry x="682.32" y="137" width="171" height="36" as="geometry" />
        </mxCell>
        <mxCell id="vYYCF9nVjxDNfxIwMQB5-5" value="MeshSubscriber" style="ellipse;shape=cloud;whiteSpace=wrap;html=1;fillColor=#dae8fc;strokeColor=#6c8ebf;" vertex="1" parent="1">
          <mxGeometry x="455" y="225" width="120" height="80" as="geometry" />
        </mxCell>
        <mxCell id="vYYCF9nVjxDNfxIwMQB5-7" value="" style="endArrow=classic;html=1;rounded=0;exitX=0.55;exitY=0.95;exitDx=0;exitDy=0;exitPerimeter=0;" edge="1" parent="1">
          <mxGeometry width="50" height="50" relative="1" as="geometry">
            <mxPoint x="527.75" y="148.9400000000001" as="sourcePoint" />
            <mxPoint x="520.6813592167932" y="227.99626761137762" as="targetPoint" />
          </mxGeometry>
        </mxCell>
        <mxCell id="vYYCF9nVjxDNfxIwMQB5-8" value="Subscribe to the request for generating new turtles" style="text;whiteSpace=wrap;" vertex="1" parent="1">
          <mxGeometry x="530" y="173" width="152.32" height="36" as="geometry" />
        </mxCell>
        <mxCell id="vYYCF9nVjxDNfxIwMQB5-10" value="The instructions for controlling the movement of the main turtle" style="text;whiteSpace=wrap;" vertex="1" parent="1">
          <mxGeometry x="194" y="322" width="183.47" height="36" as="geometry" />
        </mxCell>
        <mxCell id="vYYCF9nVjxDNfxIwMQB5-12" value="" style="endArrow=classic;html=1;rounded=0;exitX=0.31;exitY=0.8;exitDx=0;exitDy=0;exitPerimeter=0;entryX=0.608;entryY=0.015;entryDx=0;entryDy=0;entryPerimeter=0;" edge="1" parent="1" source="DJyluFNJcO-9lOKe7j0D-1" target="DJyluFNJcO-9lOKe7j0D-7">
          <mxGeometry width="50" height="50" relative="1" as="geometry">
            <mxPoint x="490" y="379" as="sourcePoint" />
            <mxPoint x="327" y="525" as="targetPoint" />
          </mxGeometry>
        </mxCell>
        <mxCell id="vYYCF9nVjxDNfxIwMQB5-11" value="Send control instructions to other turtles" style="text;whiteSpace=wrap;" vertex="1" parent="1">
          <mxGeometry x="282.53" y="422" width="143.47" height="36" as="geometry" />
        </mxCell>
        <mxCell id="vYYCF9nVjxDNfxIwMQB5-13" value="Subscribe to receive notifications for the generation of new turtles" style="text;whiteSpace=wrap;" vertex="1" parent="1">
          <mxGeometry x="666" y="409" width="142.74" height="36" as="geometry" />
        </mxCell>
        <mxCell id="vYYCF9nVjxDNfxIwMQB5-18" value="follow-up control" style="text;whiteSpace=wrap;" vertex="1" parent="1">
          <mxGeometry x="647.9994993832237" y="329.00318359375" width="115" height="36" as="geometry" />
        </mxCell>
      </root>
    </mxGraphModel>
  </diagram>
</mxfile>
